HIERARCHY
ROOT pelvis
{
  OFFSET 0 100 0
  CHANNELS 6 Xposition Yposition Zposition Zrotation Xrotation Yrotation
  JOINT pelvis_right_femur
  {
    OFFSET -10.78128 -3.44521 -0.5502486
    CHANNELS 3 Zrotation Xrotation Yrotation
    JOINT right_femur_tibia
    {
      OFFSET -0.8047443 -44.0398 -0.1307829
      CHANNELS 3 Zrotation Xrotation Yrotation
      JOINT right_tibia_foot
      {
        OFFSET 3.006224 -47.83518 -5
        CHANNELS 3 Zrotation Xrotation Yrotation
        End Site
        {
          OFFSET 0 -5 15
        }
      }
    }
  }
  JOINT pelvis_left_femur
  {
    OFFSET 10.78128 -3.44521 -0.5502486
    CHANNELS 3 Zrotation Xrotation Yrotation
    JOINT left_femur_tibia
    {
      OFFSET 0.8047443 -44.0398 -0.1307829
      CHANNELS 3 Zrotation Xrotation Yrotation
      JOINT left_tibia_foot
      {
        OFFSET -4.370144 -48.10324 -4.275266
        CHANNELS 3 Zrotation Xrotation Yrotation
        End Site
        {
          OFFSET 0 -5 15
        }
      }
    }
  }
  JOINT pelvis_spine1
  {
    OFFSET 0 6.468898 -3.129235
    CHANNELS 3 Zrotation Xrotation Yrotation
    JOINT spine1
    {
      OFFSET 0 23.15396 4.99043
      CHANNELS 3 Zrotation Xrotation Yrotation
      JOINT spine2
      {
        OFFSET 0 20.79997 -5.064912
        CHANNELS 3 Zrotation Xrotation Yrotation
        JOINT neck
        {
          OFFSET 0 14.38658 9.616178
          CHANNELS 3 Zrotation Xrotation Yrotation
          End Site
          {
            OFFSET 0 20 0
          }
        }
      }
      JOINT right_manubrium
      {
        OFFSET -5.722621 16.35077 3.967754
        CHANNELS 3 Zrotation Xrotation Yrotation
        JOINT right_clavicle
        {
          OFFSET -13.16364 1.694482 -4.693211
          CHANNELS 3 Zrotation Xrotation Yrotation
          JOINT right_humerus
          {
            OFFSET -28.5034 -0.3100689 -2.792744
            CHANNELS 3 Zrotation Xrotation Yrotation
            JOINT right_radius
            {
              OFFSET -25.15693 0.02248979 -1.271978
              CHANNELS 3 Zrotation Xrotation Yrotation
              End Site
              {
                OFFSET -15 0 0
              }
            }
          }
        }
      }
      JOINT left_manubrium
      {
        OFFSET 5.722621 16.35077 3.967754
        CHANNELS 3 Zrotation Xrotation Yrotation
        JOINT left_clavicle
        {
          OFFSET 13.16364 1.694482 -4.693211
          CHANNELS 3 Zrotation Xrotation Yrotation
          JOINT left_humerus
          {
            OFFSET 29.39168 -1.063119 -2.237045
            CHANNELS 3 Zrotation Xrotation Yrotation
            JOINT left_radius
            {
              OFFSET 24.59957 -0.9528479 0.9047498
              CHANNELS 3 Zrotation Xrotation Yrotation
              End Site
              {
                OFFSET 15 -0 -0
              }
            }
          }
        }
      }
    }
  }
}
MOTION
Frames: 7
Frame Time: 0.0416666666667
-1417.652 153.4863 1818.269 -5.510392 6.509067 -128.7361 6.124067 13.43995 5.043938 -0 19.77519 -0 -7.850318 -15.74974 -3.362652 5.110281 -16.57322 0.1585499 -0 8.727277 -0 3.618852 0.5395534 10.92279 1.614382 -4.55213 8.989064 1.325518 17.65486 -7.493588 0.2424872 16.43524 0.9880961 -1.119581 -19.13677 3.026756 -0.9408149 -33.73524 13.65976 88.0932 14.80329 -11.13556 -0 0 34.29205 -20.37745 16.84576 14.90111 0.4530956 -23.04276 -7.600268 -91.91621 8.086984 41.40871 0 0 -13.74596 6.238645 9.29488 8.067276
-1423.147 153.3862 1815.54 -5.472483 6.540931 -129.0697 6.124067 13.43995 5.043938 -0 19.77519 -0 -7.850318 -15.74974 -3.362652 5.110281 -16.57322 0.1585499 -0 8.727277 -0 3.618852 0.5395534 10.92279 1.614382 -4.55213 8.989064 1.325518 17.65486 -7.493588 0.2424872 16.43524 0.9880961 -1.119581 -19.13677 3.026756 -0.9408149 -33.73524 13.65976 88.0932 14.80329 -11.13556 -0 0 34.29205 -20.37745 16.84576 14.90111 0.4530956 -23.04276 -7.600268 -91.91621 8.086984 41.40871 0 0 -13.74596 6.238645 9.29488 8.067276
-1428.626 153.286 1812.78 -5.434385 6.572575 -129.4033 6.124067 13.43995 5.043938 -0 19.77519 -0 -7.850318 -15.74974 -3.362652 5.110281 -16.57322 0.1585499 -0 8.727277 -0 3.618852 0.5395534 10.92279 1.614382 -4.55213 8.989064 1.325518 17.65486 -7.493588 0.2424872 16.43524 0.9880961 -1.119581 -19.13677 3.026756 -0.9408149 -33.73524 13.65976 88.0932 14.80329 -11.13556 -0 0 34.29205 -20.37745 16.84576 14.90111 0.4530956 -23.04276 -7.600268 -91.91621 8.086984 41.40871 0 0 -13.74596 6.238645 9.29488 8.067276
-1434.089 153.1859 1809.987 -5.3961 6.603998 -129.737 6.124067 13.43995 5.043938 -0 19.77519 -0 -7.850318 -15.74974 -3.362652 5.110281 -16.57322 0.1585499 -0 8.727277 -0 3.618852 0.5395534 10.92279 1.614382 -4.55213 8.989064 1.325518 17.65486 -7.493588 0.2424872 16.43524 0.9880961 -1.119581 -19.13677 3.026756 -0.9408149 -33.73524 13.65976 88.0932 14.80329 -11.13556 -0 0 34.29205 -20.37745 16.84576 14.90111 0.4530956 -23.04276 -7.600268 -91.91621 8.086984 41.40871 0 0 -13.74596 6.238645 9.29488 8.067276
-1439.536 153.0857 1807.163 -5.357629 6.635199 -130.0707 6.124067 13.43995 5.043938 -0 19.77519 -0 -7.850318 -15.74974 -3.362652 5.110281 -16.57322 0.1585499 -0 8.727277 -0 3.618852 0.5395534 10.92279 1.614382 -4.55213 8.989064 1.325518 17.65486 -7.493588 0.2424872 16.43524 0.9880961 -1.119581 -19.13677 3.026756 -0.9408149 -33.73524 13.65976 88.0932 14.80329 -11.13556 -0 0 34.29205 -20.37745 16.84576 14.90111 0.4530956 -23.04276 -7.600268 -91.91621 8.086984 41.40871 0 0 -13.74596 6.238645 9.29488 8.067276
-1444.966 152.9856 1804.308 -5.318973 6.666177 -130.4045 6.124067 13.43995 5.043938 -0 19.77519 -0 -7.850318 -15.74974 -3.362652 5.110281 -16.57322 0.1585499 -0 8.727277 -0 3.618852 0.5395534 10.92279 1.614382 -4.55213 8.989064 1.325518 17.65486 -7.493588 0.2424872 16.43524 0.9880961 -1.119581 -19.13677 3.026756 -0.9408149 -33.73524 13.65976 88.0932 14.80329 -11.13556 -0 0 34.29205 -20.37745 16.84576 14.90111 0.4530956 -23.04276 -7.600268 -91.91621 8.086984 41.40871 0 0 -13.74596 6.238645 9.29488 8.067276
-1450.38 152.8854 1801.421 -5.280134 6.696931 -130.7383 6.124067 13.43995 5.043938 -0 19.77519 -0 -7.850318 -15.74974 -3.362652 5.110281 -16.57322 0.1585499 -0 8.727277 -0 3.618852 0.5395534 10.92279 1.614382 -4.55213 8.989064 1.325518 17.65486 -7.493588 0.2424872 16.43524 0.9880961 -1.119581 -19.13677 3.026756 -0.9408149 -33.73524 13.65976 88.0932 14.80329 -11.13556 -0 0 34.29205 -20.37745 16.84576 14.90111 0.4530956 -23.04276 -7.600268 -91.91621 8.086984 41.40871 0 0 -13.74596 6.238645 9.29488 8.067276
